<?xml version="1.0" encoding="utf-8"?>
<svg width="14px" height="16px" viewbox="0 0 14 16" version="1.1" xmlns:xlink="http://www.w3.org/1999/xlink" xmlns="http://www.w3.org/2000/svg">
  <path d="M6.56412 16C7.46669 16 8.20515 15.2615 8.20515 14.3589L4.9231 14.3589C4.9231 15.2615 5.65335 16 6.56412 16ZM11.4872 11.0769L11.4872 6.97436C11.4872 4.45538 10.1415 2.34667 7.79487 1.78872L7.79487 1.23077C7.79487 0.549744 7.24513 0 6.5641 0C5.88308 0 5.33333 0.549744 5.33333 1.23077L5.33333 1.78872C2.97846 2.34667 1.64103 4.44718 1.64103 6.97436L1.64103 11.0769L0 12.7179L0 13.5385L13.1282 13.5385L13.1282 12.7179L11.4872 11.0769Z" id="Shape" fill="#8397AB" stroke="none" />
</svg>