<?xml version="1.0" encoding="utf-8"?>
<svg width="24px" height="24px" viewbox="0 0 24 24" version="1.1" xmlns:xlink="http://www.w3.org/1999/xlink" xmlns="http://www.w3.org/2000/svg">
  <g id="Group-2">
    <g id="Group">
      <path d="M3.999 0L20.001 0Q20.1975 0 20.393 0.0192563Q20.5885 0.0385126 20.7812 0.0768396Q20.9739 0.115167 21.1618 0.172196Q21.3498 0.229224 21.5313 0.304406Q21.7129 0.379587 21.8861 0.472197Q22.0594 0.564807 22.2227 0.673953Q22.3861 0.783099 22.5379 0.907731Q22.6898 1.03236 22.8287 1.17128Q22.9676 1.3102 23.0923 1.46206Q23.2169 1.61393 23.326 1.77727Q23.4352 1.94062 23.5278 2.11388Q23.6204 2.28715 23.6956 2.46865Q23.7708 2.65015 23.8278 2.83815Q23.8848 3.02615 23.9232 3.21883Q23.9615 3.41152 23.9807 3.60703Q24 3.80254 24 3.999L24 20.001Q24 20.1975 23.9807 20.393Q23.9615 20.5885 23.9232 20.7812Q23.8848 20.9739 23.8278 21.1618Q23.7708 21.3498 23.6956 21.5313Q23.6204 21.7129 23.5278 21.8861Q23.4352 22.0594 23.326 22.2227Q23.2169 22.3861 23.0923 22.5379Q22.9676 22.6898 22.8287 22.8287Q22.6898 22.9676 22.5379 23.0923Q22.3861 23.2169 22.2227 23.326Q22.0594 23.4352 21.8861 23.5278Q21.7129 23.6204 21.5313 23.6956Q21.3498 23.7708 21.1618 23.8278Q20.9739 23.8848 20.7812 23.9232Q20.5885 23.9615 20.393 23.9807Q20.1975 24 20.001 24L3.999 24Q3.80254 24 3.60703 23.9807Q3.41152 23.9615 3.21883 23.9232Q3.02615 23.8848 2.83815 23.8278Q2.65015 23.7708 2.46865 23.6956Q2.28715 23.6204 2.11388 23.5278Q1.94062 23.4352 1.77727 23.326Q1.61393 23.2169 1.46206 23.0923Q1.3102 22.9676 1.17128 22.8287Q1.03236 22.6898 0.907731 22.5379Q0.783099 22.3861 0.673953 22.2227Q0.564807 22.0594 0.472197 21.8861Q0.379587 21.7129 0.304406 21.5313Q0.229224 21.3498 0.172196 21.1618Q0.115167 20.9739 0.0768396 20.7812Q0.0385126 20.5885 0.0192563 20.393Q0 20.1975 0 20.001L0 3.999Q0 3.80254 0.0192563 3.60703Q0.0385126 3.41152 0.0768396 3.21883Q0.115167 3.02615 0.172196 2.83815Q0.229224 2.65015 0.304406 2.46865Q0.379587 2.28715 0.472197 2.11388Q0.564807 1.94062 0.673953 1.77727Q0.783099 1.61393 0.907731 1.46206Q1.03236 1.3102 1.17128 1.17128Q1.3102 1.03236 1.46206 0.907731Q1.61393 0.783099 1.77727 0.673953Q1.94062 0.564807 2.11388 0.472197Q2.28715 0.379587 2.46865 0.304406Q2.65015 0.229224 2.83815 0.172196Q3.02615 0.115167 3.21883 0.0768396Q3.41152 0.0385126 3.60703 0.0192563Q3.80254 0 3.999 0L3.999 0Z" id="Rectangle" fill="#17ECD4" fill-rule="evenodd" stroke="none" />
    </g>
    <path d="M13.3777 2.25556L13.9999 1.63333C12.9111 0.544444 11.5111 0 10.1111 0C8.71106 0 7.31106 0.544444 6.22217 1.63333L6.84439 2.25556C7.77772 1.4 8.94439 0.933333 10.1111 0.933333C11.2777 0.933333 12.4444 1.4 13.3777 2.25556ZM12.6778 2.87783C11.9778 2.17783 11.0444 1.78894 10.1111 1.78894C9.17777 1.78894 8.24443 2.17783 7.54443 2.87783L8.16666 3.50005C8.7111 2.95561 9.4111 2.72227 10.1111 2.72227C10.8111 2.72227 11.5111 2.95561 12.0555 3.50005L12.6778 2.87783L12.6778 2.87783ZM12.4444 7.77774L10.8889 7.77774L10.8889 4.66663L9.33333 4.66663L9.33333 7.77774L1.55556 7.77774C0.7 7.77774 0 8.47774 0 9.33329L0 12.4444C0 13.3 0.7 14 1.55556 14L12.4444 14C13.3 14 14 13.3 14 12.4444L14 9.33329C14 8.47774 13.3 7.77774 12.4444 7.77774ZM3.88893 11.6666L2.33337 11.6666L2.33337 10.1111L3.88893 10.1111L3.88893 11.6666ZM6.6111 11.6666L5.05554 11.6666L5.05554 10.1111L6.6111 10.1111L6.6111 11.6666ZM9.33339 11.6666L7.77783 11.6666L7.77783 10.1111L9.33339 10.1111L9.33339 11.6666Z" transform="translate(5 5)" id="Shape" fill="#FFFFFF" stroke="none" />
  </g>
</svg>