<?xml version="1.0" encoding="utf-8"?>
<svg width="24px" height="24px" viewbox="0 0 24 24" version="1.1" xmlns:xlink="http://www.w3.org/1999/xlink" xmlns="http://www.w3.org/2000/svg">
  <g id="Group">
    <path d="M3.999 0L20.001 0Q20.1975 0 20.393 0.0192563Q20.5885 0.0385126 20.7812 0.0768396Q20.9739 0.115167 21.1618 0.172196Q21.3498 0.229224 21.5313 0.304406Q21.7129 0.379587 21.8861 0.472197Q22.0594 0.564807 22.2227 0.673953Q22.3861 0.783099 22.5379 0.907731Q22.6898 1.03236 22.8287 1.17128Q22.9676 1.3102 23.0923 1.46206Q23.2169 1.61393 23.326 1.77727Q23.4352 1.94062 23.5278 2.11388Q23.6204 2.28715 23.6956 2.46865Q23.7708 2.65015 23.8278 2.83815Q23.8848 3.02615 23.9232 3.21883Q23.9615 3.41152 23.9807 3.60703Q24 3.80254 24 3.999L24 20.001Q24 20.1975 23.9807 20.393Q23.9615 20.5885 23.9232 20.7812Q23.8848 20.9739 23.8278 21.1618Q23.7708 21.3498 23.6956 21.5313Q23.6204 21.7129 23.5278 21.8861Q23.4352 22.0594 23.326 22.2227Q23.2169 22.3861 23.0923 22.5379Q22.9676 22.6898 22.8287 22.8287Q22.6898 22.9676 22.5379 23.0923Q22.3861 23.2169 22.2227 23.326Q22.0594 23.4352 21.8861 23.5278Q21.7129 23.6204 21.5313 23.6956Q21.3498 23.7708 21.1618 23.8278Q20.9739 23.8848 20.7812 23.9232Q20.5885 23.9615 20.393 23.9807Q20.1975 24 20.001 24L3.999 24Q3.80254 24 3.60703 23.9807Q3.41152 23.9615 3.21883 23.9232Q3.02615 23.8848 2.83815 23.8278Q2.65015 23.7708 2.46865 23.6956Q2.28715 23.6204 2.11388 23.5278Q1.94062 23.4352 1.77727 23.326Q1.61393 23.2169 1.46206 23.0923Q1.3102 22.9676 1.17128 22.8287Q1.03236 22.6898 0.907731 22.5379Q0.783099 22.3861 0.673953 22.2227Q0.564807 22.0594 0.472197 21.8861Q0.379587 21.7129 0.304406 21.5313Q0.229224 21.3498 0.172196 21.1618Q0.115167 20.9739 0.0768396 20.7812Q0.0385126 20.5885 0.0192563 20.393Q0 20.1975 0 20.001L0 3.999Q0 3.80254 0.0192563 3.60703Q0.0385126 3.41152 0.0768396 3.21883Q0.115167 3.02615 0.172196 2.83815Q0.229224 2.65015 0.304406 2.46865Q0.379587 2.28715 0.472197 2.11388Q0.564807 1.94062 0.673953 1.77727Q0.783099 1.61393 0.907731 1.46206Q1.03236 1.3102 1.17128 1.17128Q1.3102 1.03236 1.46206 0.907731Q1.61393 0.783099 1.77727 0.673953Q1.94062 0.564807 2.11388 0.472197Q2.28715 0.379587 2.46865 0.304406Q2.65015 0.229224 2.83815 0.172196Q3.02615 0.115167 3.21883 0.0768396Q3.41152 0.0385126 3.60703 0.0192563Q3.80254 0 3.999 0L3.999 0Z" id="Rectangle" fill="#C155FF" fill-rule="evenodd" stroke="none" />
    <path d="M9.42902 0.468751C9.42902 0.209657 9.63868 0 9.89778 0C10.1569 0 10.3665 0.209657 10.3665 0.468751L10.3665 1.40625C10.3665 1.66535 10.1569 1.875 9.89778 1.875C9.63868 1.875 9.42902 1.66535 9.42902 1.40625L9.42902 0.468751ZM13.6542 6.64308L7.41393 0.401907C7.04589 0.0347813 6.45055 0.0391251 6.08733 0.401438C5.72205 0.767658 5.72205 1.36228 6.08733 1.72803L12.3285 7.96877C12.6941 8.33439 13.2885 8.33439 13.6542 7.96877C14.0208 7.60214 14.0208 7.00964 13.6542 6.64308ZM12.3788 1.07481C12.5619 0.891721 12.8586 0.891721 13.0417 1.07481C13.2248 1.25791 13.2248 1.55457 13.0417 1.73766L12.1042 2.67516C11.9211 2.85829 11.6244 2.85826 11.4413 2.67516C11.2582 2.49207 11.2582 2.19541 11.4413 2.01232L12.3788 1.07481ZM5.62436 2.59079L5.57739 2.82623C5.24655 4.48117 4.44248 6.05339 3.35495 7.32767L6.75018 10.7229C8.0243 9.63558 9.57487 8.80993 11.2299 8.47867L11.4657 8.43171L5.62436 2.59079ZM13.6478 3.75001L12.7103 3.75001C12.4512 3.75001 12.2415 3.95966 12.2415 4.21876C12.2415 4.47785 12.4512 4.68751 12.7103 4.68751L13.6478 4.68751C13.9069 4.68751 14.1165 4.47785 14.1165 4.21876C14.1165 3.95966 13.9069 3.75001 13.6478 3.75001ZM0.412068 10.3509L2.73248 8.03092L6.04692 11.3453L3.72673 13.6655C3.17617 14.2161 2.28604 14.2138 1.73776 13.6655L0.412068 12.3398C-0.138496 11.7893 -0.136215 10.8991 0.412068 10.3509ZM2.40107 11.677C2.58417 11.8601 2.88082 11.8601 3.06392 11.677L3.72676 11.0142C3.90986 10.8311 3.90986 10.5344 3.72676 10.3513C3.54367 10.1682 3.24701 10.1682 3.06392 10.3513L2.40107 11.0142C2.21798 11.1973 2.21798 11.4939 2.40107 11.677ZM8.00408 13.915L8.64174 13.2773C9.19234 12.7268 9.19053 11.8367 8.64177 11.2888L8.16815 10.8149C7.90637 10.9907 7.65636 11.1818 7.4133 11.3856L7.97893 11.9521C8.16158 12.1338 8.16287 12.4296 7.97893 12.6145L7.33074 13.2627L6.37817 12.3398L5.05242 13.6655L7.17921 15.7264C7.54215 16.0903 8.13805 16.0923 8.50443 15.7259C8.87018 15.3602 8.87018 14.7655 8.50443 14.3997L8.00408 13.915Z" transform="translate(5 4)" id="Combined-Shape" fill="#FFFFFF" fill-rule="evenodd" stroke="none" />
  </g>
</svg>