<?xml version="1.0" encoding="utf-8"?>
<svg width="109px" height="24px" viewbox="0 0 109 24" version="1.1" xmlns:xlink="http://www.w3.org/1999/xlink" xmlns="http://www.w3.org/2000/svg">
  <path d="M20.7745 0.459225L25.2389 0.459225L25.2389 2.32933C26.3156 0.724162 27.9575 0 30.0572 0C31.0456 0 31.8214 0.1413 32.4572 0.370912L31.7684 4.94126C31.0103 4.60638 29.9159 4.39443 28.9805 4.39443C26.8448 4.39443 25.3802 5.70004 25.3802 8.24132L25.3802 17.56L20.7745 17.56L20.7745 0.459225ZM9.59991 0.000213623C7.25363 0.000213623 5.61243 0.952575 4.4997 2.3472L4.4997 0.458732L0 0.458732L0 24L4.58801 23.9993L4.58801 15.7771C5.70004 17.101 7.32428 18.0004 9.61828 18.0004C14.3306 18.0004 17.8949 14.1366 17.8949 9.00031C17.8949 3.86547 14.3306 0.000213623 9.59991 0.000213623ZM42.3067 0.000213623C36.9939 0.000213623 33.077 3.8471 33.077 9.00031C33.077 14.1535 36.9939 18.0004 42.3067 18.0004C47.6359 18.0004 51.5718 14.1535 51.5718 9.00031C51.5718 3.8471 47.6359 0.000213623 42.3067 0.000213623ZM80.9412 0.000213623C78.5949 0.000213623 76.9537 0.952575 75.8409 2.3472L75.8409 0.458732L71.3412 0.458732L71.3412 23.9993L75.9293 23.9993L75.9293 15.7771C77.0413 17.101 78.6655 18.0004 80.9595 18.0004C85.6719 18.0004 89.2362 14.1366 89.2362 9.00031C89.2362 3.86547 85.6719 0.000213623 80.9412 0.000213623ZM104.451 0.458732L104.451 2.3472C103.321 0.952575 101.681 0.000213623 99.3333 0.000213623C94.6216 0.000213623 91.0566 3.86547 91.0566 9.00031C91.0566 14.1366 94.6216 18.0004 99.3333 18.0004C101.681 18.0004 103.34 17.048 104.451 15.6711L104.451 17.5596L108.952 17.5596L108.952 0.458732L104.451 0.458732ZM58.5091 5.38261C58.5091 6.371 59.7448 6.61828 61.2984 6.84789L62.8152 7.07679C66.5215 7.64199 68.5866 9.30015 68.5866 12.1947C68.5866 15.7243 65.6921 18.0007 60.7332 18.0007C58.4039 18.0007 55.3511 17.5598 53.127 15.9886L54.9441 12.4949C56.4094 13.4657 58.1919 14.1715 60.7685 14.1715C62.9036 14.1715 63.9273 13.5709 63.9273 12.5656C63.9273 11.7362 63.0632 11.2769 61.0864 10.995L59.6918 10.8008C55.7382 10.2532 53.7798 8.52441 53.7798 5.61222C53.7798 2.10021 56.4977 0.018158 60.9981 0.018158C63.7337 0.018158 65.8687 0.528957 68.1458 1.64169L66.5922 5.22365C65.2336 4.55318 63.0632 3.84739 61.1387 3.82972C59.3915 3.82972 58.5091 4.4472 58.5091 5.38261ZM8.75356 13.7127C6.14163 13.7127 4.35913 11.7006 4.35913 9.00032C4.35913 6.30007 6.14163 4.28796 8.75356 4.28796C11.4715 4.28796 13.1656 6.38839 13.1656 9.00032C13.1656 11.6122 11.4715 13.7127 8.75356 13.7127ZM42.3067 13.7127C39.7118 13.7127 37.771 11.7712 37.771 9.00032C37.771 6.22942 39.7118 4.28796 42.3067 4.28796C44.901 4.28796 46.8594 6.22942 46.8594 9.00032C46.8594 11.7712 44.901 13.7127 42.3067 13.7127ZM80.0948 13.7127C77.4829 13.7127 75.7004 11.7006 75.7004 9.00032C75.7004 6.30007 77.4829 4.28796 80.0948 4.28796C82.8127 4.28796 84.5069 6.38839 84.5069 9.00032C84.5069 11.6122 82.8127 13.7127 80.0948 13.7127ZM100.18 13.7127C97.4808 13.7127 95.769 11.6122 95.769 9.00032C95.769 6.38839 97.4808 4.28796 100.18 4.28796C102.811 4.28796 104.592 6.30007 104.592 9.00032C104.592 11.7006 102.811 13.7127 100.18 13.7127Z" id="Combined-Shape" fill="#FFFFFF" fill-rule="evenodd" stroke="none" />
</svg>