<?xml version="1.0" encoding="utf-8"?>
<svg width="46px" height="45px" viewbox="0 0 46 45" version="1.1" xmlns:xlink="http://www.w3.org/1999/xlink" xmlns="http://www.w3.org/2000/svg">
  <g id="Group-2" transform="translate(0.5 0.5)">
    <path d="M19.999 0L24.3803 0Q24.8713 0 25.3616 0.0240897Q25.852 0.0481793 26.3406 0.0963006Q26.8291 0.144422 27.3148 0.216459Q27.8004 0.288496 28.2819 0.384275Q28.7634 0.480054 29.2397 0.599345Q29.7159 0.718635 30.1857 0.86115Q30.6555 1.00366 31.1178 1.16906Q31.58 1.33446 32.0336 1.52233Q32.4872 1.71021 32.931 1.92012Q33.3748 2.13003 33.8078 2.36146Q34.2408 2.59289 34.6618 2.84529Q35.083 3.09768 35.4912 3.37044Q35.8994 3.64319 36.2937 3.93565Q36.688 4.22811 37.0675 4.53956Q37.4471 4.85102 37.8108 5.18072Q38.1746 5.51042 38.5217 5.85757Q38.8689 6.20472 39.1986 6.56849Q39.5283 6.93226 39.8397 7.31177Q40.1512 7.69128 40.4437 8.08561Q40.7361 8.47994 41.0089 8.88815Q41.2816 9.29636 41.534 9.71746Q41.7864 10.1386 42.0179 10.5715Q42.2493 11.0045 42.4592 11.4483Q42.6691 11.8921 42.857 12.3457Q43.0449 12.7993 43.2102 13.2615Q43.3756 13.7238 43.5182 14.1936Q43.6607 14.6634 43.78 15.1396Q43.8993 15.6159 43.995 16.0974Q44.0908 16.5789 44.1628 17.0645Q44.2349 17.5502 44.283 18.0388Q44.3311 18.5273 44.3552 19.0177Q44.3793 19.5081 44.3793 19.999L44.3793 24.001Q44.3793 24.4919 44.3552 24.9823Q44.3311 25.4727 44.283 25.9612Q44.2349 26.4498 44.1628 26.9355Q44.0908 27.4211 43.995 27.9026Q43.8993 28.3841 43.78 28.8604Q43.6607 29.3366 43.5182 29.8064Q43.3756 30.2762 43.2102 30.7385Q43.0449 31.2007 42.857 31.6543Q42.6691 32.1079 42.4592 32.5517Q42.2493 32.9955 42.0179 33.4285Q41.7864 33.8614 41.534 34.2825Q41.2816 34.7036 41.0089 35.1118Q40.7361 35.5201 40.4437 35.9144Q40.1512 36.3087 39.8397 36.6882Q39.5283 37.0677 39.1986 37.4315Q38.8689 37.7953 38.5217 38.1424Q38.1746 38.4896 37.8108 38.8193Q37.4471 39.149 37.0675 39.4604Q36.688 39.7719 36.2937 40.0643Q35.8994 40.3568 35.4912 40.6296Q35.083 40.9023 34.6618 41.1547Q34.2407 41.4071 33.8078 41.6385Q33.3748 41.87 32.931 42.0799Q32.4872 42.2898 32.0336 42.4777Q31.58 42.6655 31.1178 42.8309Q30.6555 42.9963 30.1857 43.1388Q29.7159 43.2814 29.2397 43.4007Q28.7634 43.5199 28.2819 43.6157Q27.8004 43.7115 27.3148 43.7835Q26.8291 43.8556 26.3406 43.9037Q25.852 43.9518 25.3616 43.9759Q24.8713 44 24.3803 44L19.999 44Q19.5081 44 19.0177 43.9759Q18.5273 43.9518 18.0388 43.9037Q17.5502 43.8556 17.0645 43.7835Q16.5789 43.7115 16.0974 43.6157Q15.6159 43.5199 15.1396 43.4007Q14.6634 43.2814 14.1936 43.1388Q13.7238 42.9963 13.2615 42.8309Q12.7993 42.6655 12.3457 42.4777Q11.8921 42.2898 11.4483 42.0799Q11.0045 41.87 10.5715 41.6385Q10.1386 41.4071 9.71746 41.1547Q9.29636 40.9023 8.88815 40.6296Q8.47994 40.3568 8.08561 40.0643Q7.69128 39.7719 7.31177 39.4604Q6.93226 39.149 6.56849 38.8193Q6.20472 38.4896 5.85757 38.1424Q5.51042 37.7953 5.18072 37.4315Q4.85102 37.0677 4.53956 36.6882Q4.22811 36.3087 3.93565 35.9144Q3.64319 35.5201 3.37044 35.1118Q3.09768 34.7036 2.84529 34.2825Q2.59289 33.8614 2.36146 33.4285Q2.13003 32.9955 1.92012 32.5517Q1.71021 32.1079 1.52233 31.6543Q1.33446 31.2007 1.16906 30.7385Q1.00366 30.2762 0.86115 29.8064Q0.718635 29.3366 0.599345 28.8604Q0.480054 28.3841 0.384275 27.9026Q0.288496 27.4211 0.216459 26.9355Q0.144422 26.4498 0.0963006 25.9612Q0.0481793 25.4727 0.0240897 24.9823Q0 24.4919 0 24.001L0 19.999Q0 19.5081 0.0240897 19.0177Q0.0481793 18.5273 0.0963006 18.0388Q0.144422 17.5502 0.216459 17.0645Q0.288496 16.5789 0.384275 16.0974Q0.480054 15.6159 0.599345 15.1396Q0.718635 14.6634 0.86115 14.1936Q1.00366 13.7238 1.16906 13.2615Q1.33446 12.7993 1.52233 12.3457Q1.71021 11.8921 1.92012 11.4483Q2.13003 11.0045 2.36146 10.5715Q2.59289 10.1386 2.84529 9.71746Q3.09768 9.29636 3.37044 8.88815Q3.64319 8.47994 3.93565 8.08561Q4.22811 7.69128 4.53956 7.31177Q4.85102 6.93226 5.18072 6.56849Q5.51042 6.20472 5.85757 5.85757Q6.20472 5.51042 6.56849 5.18072Q6.93226 4.85102 7.31177 4.53956Q7.69128 4.22811 8.08561 3.93565Q8.47994 3.64319 8.88815 3.37044Q9.29636 3.09768 9.71746 2.84529Q10.1386 2.59289 10.5715 2.36146Q11.0045 2.13003 11.4483 1.92012Q11.8921 1.71021 12.3457 1.52233Q12.7993 1.33446 13.2615 1.16906Q13.7238 1.00366 14.1936 0.86115Q14.6634 0.718635 15.1396 0.599345Q15.6159 0.480054 16.0974 0.384275Q16.5789 0.288496 17.0645 0.216459Q17.5502 0.144422 18.0388 0.0963006Q18.5273 0.0481793 19.0177 0.0240897Q19.5081 0 19.999 0Z" id="Rectangle" fill="#7E51FF" fill-opacity="0.1" fill-rule="evenodd" stroke="none" />
    <path d="M19.9707 0L2.21897 0C0.98744 0 0.0110948 0.979 0.0110948 2.2L0 15.4C0 16.621 0.98744 17.6 2.21897 17.6L19.9707 17.6C21.2022 17.6 22.1897 16.621 22.1897 15.4L22.1897 2.2C22.1897 0.979 21.2022 0 19.9707 0ZM19.9707 15.4L2.21897 15.4L2.21897 8.8L19.9707 8.8L19.9707 15.4ZM19.9707 4.4L2.21897 4.4L2.21897 2.2L19.9707 2.2L19.9707 4.4Z" transform="translate(11.094849 13.200012)" id="Shape" fill="#7E51FF" stroke="none" />
  </g>
</svg>