<?xml version="1.0" encoding="utf-8"?>
<svg width="40px" height="40px" viewbox="0 0 40 40" version="1.1" xmlns:xlink="http://www.w3.org/1999/xlink" xmlns="http://www.w3.org/2000/svg">
  <g id="Group">
    <path d="M20 40C31.0457 40 40 31.0457 40 20C40 8.9543 31.0457 0 20 0C8.9543 0 0 8.9543 0 20C0 31.0457 8.9543 40 20 40Z" id="Oval" fill="#F4F8FB" fill-rule="evenodd" stroke="none" />
    <path d="M0 3.80952L8 0L16 3.80952L16 5.33333L0 5.33333L0 3.80952ZM1.6 12.1905L1.6 6.85714L4 6.85714L4 12.1905L1.6 12.1905ZM6.8 12.1905L6.8 6.85714L9.2 6.85714L9.2 12.1905L6.8 12.1905ZM12 12.1905L12 6.85714L14.4 6.85714L14.4 12.1905L12 12.1905ZM0 16L0 13.7143L16 13.7143L16 16L0 16Z" transform="translate(12 12)" id="Combined-Shape" fill="#8397AB" fill-rule="evenodd" stroke="none" />
  </g>
</svg>