<?xml version="1.0" encoding="utf-8"?>
<svg width="24px" height="24px" viewbox="0 0 24 24" version="1.1" xmlns:xlink="http://www.w3.org/1999/xlink" xmlns="http://www.w3.org/2000/svg">
  <g id="Group">
    <path d="M3.999 0L20.001 0Q20.1975 0 20.393 0.0192563Q20.5885 0.0385126 20.7812 0.0768396Q20.9739 0.115167 21.1618 0.172196Q21.3498 0.229224 21.5313 0.304406Q21.7129 0.379587 21.8861 0.472197Q22.0594 0.564807 22.2227 0.673953Q22.3861 0.783099 22.5379 0.907731Q22.6898 1.03236 22.8287 1.17128Q22.9676 1.3102 23.0923 1.46206Q23.2169 1.61393 23.326 1.77727Q23.4352 1.94062 23.5278 2.11388Q23.6204 2.28715 23.6956 2.46865Q23.7708 2.65015 23.8278 2.83815Q23.8848 3.02615 23.9232 3.21883Q23.9615 3.41152 23.9807 3.60703Q24 3.80254 24 3.999L24 20.001Q24 20.1975 23.9807 20.393Q23.9615 20.5885 23.9232 20.7812Q23.8848 20.9739 23.8278 21.1618Q23.7708 21.3498 23.6956 21.5313Q23.6204 21.7129 23.5278 21.8861Q23.4352 22.0594 23.326 22.2227Q23.2169 22.3861 23.0923 22.5379Q22.9676 22.6898 22.8287 22.8287Q22.6898 22.9676 22.5379 23.0923Q22.3861 23.2169 22.2227 23.326Q22.0594 23.4352 21.8861 23.5278Q21.7129 23.6204 21.5313 23.6956Q21.3498 23.7708 21.1618 23.8278Q20.9739 23.8848 20.7812 23.9232Q20.5885 23.9615 20.393 23.9807Q20.1975 24 20.001 24L3.999 24Q3.80254 24 3.60703 23.9807Q3.41152 23.9615 3.21883 23.9232Q3.02615 23.8848 2.83815 23.8278Q2.65015 23.7708 2.46865 23.6956Q2.28715 23.6204 2.11388 23.5278Q1.94062 23.4352 1.77727 23.326Q1.61393 23.2169 1.46206 23.0923Q1.3102 22.9676 1.17128 22.8287Q1.03236 22.6898 0.907731 22.5379Q0.783099 22.3861 0.673953 22.2227Q0.564807 22.0594 0.472197 21.8861Q0.379587 21.7129 0.304406 21.5313Q0.229224 21.3498 0.172196 21.1618Q0.115167 20.9739 0.0768396 20.7812Q0.0385126 20.5885 0.0192563 20.393Q0 20.1975 0 20.001L0 3.999Q0 3.80254 0.0192563 3.60703Q0.0385126 3.41152 0.0768396 3.21883Q0.115167 3.02615 0.172196 2.83815Q0.229224 2.65015 0.304406 2.46865Q0.379587 2.28715 0.472197 2.11388Q0.564807 1.94062 0.673953 1.77727Q0.783099 1.61393 0.907731 1.46206Q1.03236 1.3102 1.17128 1.17128Q1.3102 1.03236 1.46206 0.907731Q1.61393 0.783099 1.77727 0.673953Q1.94062 0.564807 2.11388 0.472197Q2.28715 0.379587 2.46865 0.304406Q2.65015 0.229224 2.83815 0.172196Q3.02615 0.115167 3.21883 0.0768396Q3.41152 0.0385126 3.60703 0.0192563Q3.80254 0 3.999 0L3.999 0Z" id="Rectangle" fill="#00EC47" fill-rule="evenodd" stroke="none" />
    <path d="M14 7C14 3.136 10.864 0 7 0C3.136 0 0 3.136 0 7C0 10.864 3.136 14 7 14C10.864 14 14 10.864 14 7ZM9.1 3.15L11.55 5.6L9.1 8.05L9.1 6.3L6.3 6.3L6.3 4.9L9.1 4.9L9.1 3.15ZM4.9 10.85L2.45 8.4L4.9 5.95L4.9 7.7L7.7 7.7L7.7 9.1L4.9 9.1L4.9 10.85Z" transform="translate(5 5)" id="Shape" fill="#FFFFFF" stroke="none" />
  </g>
</svg>